<?xml version="1.0" encoding="utf-8"?>
<!-- Generator: Adobe Illustrator 17.1.0, SVG Export Plug-In . SVG Version: 6.00 Build 0)  -->
<!DOCTYPE svg PUBLIC "-//W3C//DTD SVG 1.1//EN" "http://www.w3.org/Graphics/SVG/1.1/DTD/svg11.dtd">
<svg version="1.1" id="Layer_1" xmlns="http://www.w3.org/2000/svg" xmlns:xlink="http://www.w3.org/1999/xlink" x="0px" y="0px"
	 viewBox="0 0 100 100" enable-background="new 0 0 100 100" xml:space="preserve">
<path fill="#231F20" d="M72.1,47.7c0,0-0.1-0.1-0.1-0.1c-0.1-0.1-0.1-0.2-0.2-0.2l-17-17c-1.5-1.5-3.9-1.5-5.4,0
	c-1.5,1.5-1.5,3.9,0,5.4l10.5,10.5h-29c-2.1,0-3.8,1.7-3.8,3.8c0,2.1,1.7,3.8,3.8,3.8h29L49.4,64.3c-1.5,1.5-1.5,3.9,0,5.4
	c1.5,1.5,3.9,1.5,5.4,0l17-17c0,0,0,0,0,0c0.1-0.1,0.1-0.2,0.2-0.2c0,0,0.1-0.1,0.1-0.1c0,0,0,0,0-0.1c0.5-0.6,0.8-1.4,0.8-2.3
	C72.9,49.2,72.6,48.4,72.1,47.7C72.1,47.7,72.1,47.7,72.1,47.7z"/>
</svg>
