<?xml version="1.0" encoding="utf-8"?>
<!-- Generator: Adobe Illustrator 17.1.0, SVG Export Plug-In . SVG Version: 6.00 Build 0)  -->
<!DOCTYPE svg PUBLIC "-//W3C//DTD SVG 1.1//EN" "http://www.w3.org/Graphics/SVG/1.1/DTD/svg11.dtd">
<svg version="1.1" id="Layer_1" xmlns="http://www.w3.org/2000/svg" xmlns:xlink="http://www.w3.org/1999/xlink" x="0px" y="0px"
	 viewBox="0 0 100 100" enable-background="new 0 0 100 100" xml:space="preserve">
<path d="M50,16.2c-18.7,0-33.9,15.2-33.9,33.8c0,18.7,15.2,33.8,33.9,33.8c18.7,0,33.8-15.2,33.8-33.8C83.8,31.3,68.7,16.2,50,16.2z
	 M50,81.3c-17.3,0-31.3-14-31.4-31.3c0-17.3,14-31.3,31.4-31.3c17.3,0,31.3,14,31.3,31.3C81.3,67.3,67.3,81.3,50,81.3z M63.6,36.4
	c-0.5-0.5-1.3-0.5-1.8,0L50,48.2L38.1,36.4c-0.5-0.5-1.3-0.5-1.8,0c-0.5,0.5-0.5,1.3,0,1.8L48.2,50L36.4,61.9
	c-0.5,0.5-0.5,1.3,0,1.8c0.2,0.2,0.6,0.4,0.9,0.4s0.6-0.1,0.9-0.4L50,51.8l11.9,11.9c0.2,0.2,0.6,0.4,0.9,0.4c0.3,0,0.6-0.1,0.9-0.4
	c0.5-0.5,0.5-1.3,0-1.8L51.8,50l11.9-11.9C64.1,37.6,64.1,36.8,63.6,36.4z"/>
</svg>
