<?xml version="1.0" encoding="utf-8"?>
<!-- Generator: Adobe Illustrator 18.0.0, SVG Export Plug-In . SVG Version: 6.00 Build 0)  -->
<!DOCTYPE svg PUBLIC "-//W3C//DTD SVG 1.1//EN" "http://www.w3.org/Graphics/SVG/1.1/DTD/svg11.dtd">
<svg version="1.1" id="Layer_1" xmlns="http://www.w3.org/2000/svg" xmlns:xlink="http://www.w3.org/1999/xlink" x="0px" y="0px"
	 viewBox="0 0 50 50" enable-background="new 0 0 50 50" xml:space="preserve">
<path d="M44.9,49.9c-1.6,0-3-0.8-3.6-1.6L25,32.2L8.8,48.4c-0.9,0.9-2.2,1.6-3.6,1.6c-1.6,0-3-0.8-3.6-1.6c-0.9-0.9-1.6-2.2-1.6-3.6
	c0-1.4,0.5-2.6,1.6-3.6l16.2-16.3L1.5,8.9c-2-2-2-5.3,0-7.2c0.9-0.9,2.2-1.6,3.6-1.6c1.4,0,2.6,0.5,3.6,1.6l16.3,16L41.2,1.6
	C42.1,0.6,43.4,0,44.8,0c1.2,0,2.5,0.5,3.6,1.4c1.9,1.6,2.2,4.7,0.5,6.8l-0.2,0.2L32.2,24.9l16.3,16.3c2,2,2,5.3,0,7.2
	C47.4,49.5,46.2,49.9,44.9,49.9z"/>
</svg>
