<?xml version="1.0" encoding="utf-8"?>
<!-- Generator: Adobe Illustrator 17.1.0, SVG Export Plug-In . SVG Version: 6.00 Build 0)  -->
<!DOCTYPE svg PUBLIC "-//W3C//DTD SVG 1.0//EN" "http://www.w3.org/TR/2001/REC-SVG-20010904/DTD/svg10.dtd">
<svg version="1.0" id="Layer_1" xmlns="http://www.w3.org/2000/svg" xmlns:xlink="http://www.w3.org/1999/xlink" x="0px" y="0px"
	 viewBox="0 2.2 100 97.5" enable-background="new 0 2.2 100 97.5" xml:space="preserve">
<g display="none">
	<g display="inline">
		<path d="M90.7,47.5H49c-1.2,0-2.2,1-2.2,2.2v29.2c0,1.2,1,2.2,2.2,2.2h41.7c1.2,0,2.2-1,2.2-2.2V49.7
			C92.9,48.5,91.9,47.5,90.7,47.5z M90.3,78.7H49.4V50.1h40.9V78.7z M57.3,61.9c2.3,0,4.2-1.8,4.2-4s-1.9-4-4.2-4s-4.2,1.8-4.2,4
			S55,61.9,57.3,61.9z M78,55.9l-7,10.9L66.7,61L61,70.2l-3.2-3.8l-6.4,8.4H88L78,55.9z M43.4,47.6H18.8c-0.7,0-1.3,0.5-1.3,1.2
			v16.4c0,0.7,0.6,1.2,1.3,1.2h24.6c0.7,0,1.3-0.5,1.3-1.2V48.8C44.7,48.1,44.1,47.6,43.4,47.6z M43.2,65.1H19V49h24.2V65.1z
			 M23.6,55.7c1.4,0,2.5-1,2.5-2.3s-1.1-2.3-2.5-2.3s-2.5,1-2.5,2.3C21.2,54.6,22.3,55.7,23.6,55.7z M35.9,52.3l-4.1,6.1l-2.5-3.2
			L26,60.3l-2-2.2l-3.8,4.7h21.7L35.9,52.3z M48.3,45.5h28.4c0.8,0,1.5-0.7,1.5-1.5V23.9c0-0.8-0.7-1.5-1.5-1.5H48.3
			c-0.8,0-1.5,0.7-1.5,1.5V44C46.8,44.8,47.5,45.5,48.3,45.5z M48.6,24.1h27.9v19.6H48.6V24.1z M53.9,32.3c1.6,0,2.8-1.2,2.8-2.8
			s-1.2-2.8-2.8-2.8s-2.8,1.2-2.8,2.8C51.1,31.1,52.4,32.3,53.9,32.3z M63.3,35.6l-2.9-4l-3.9,6.3l-2.2-2.6L50,41.1h25l-6.9-13
			L63.3,35.6z M42.6,43.7V20c0-1-0.8-1.8-1.7-1.8H8.7C7.7,18.2,7,19,7,20v23.7c0,1,0.8,1.8,1.7,1.8h32.1
			C41.8,45.5,42.6,44.7,42.6,43.7z M40.6,43.4H9V20.2h31.6V43.4z M15.1,29.9c1.8,0,3.2-1.5,3.2-3.3s-1.4-3.3-3.2-3.3
			s-3.2,1.5-3.2,3.3C11.9,28.4,13.3,29.9,15.1,29.9z M31.1,25l-5.4,8.8l-3.3-4.7L18,36.5l-2.5-3.1l-4.9,6.9h28.3L31.1,25z"/>
	</g>
</g>
<g display="none">
	<path display="inline" d="M56.7,70.2c3.2,3.2,6.2,6.1,9.1,9.1c0.8,0.8,2,1.7,1.4,3.1c-0.6,1.3-2,1.1-3.2,1.1c-9.4,0-18.7,0-28.1,0
		c-1.2,0-2.5,0.2-3.1-1.1c-0.6-1.4,0.5-2.2,1.4-3.1c2.9-2.9,5.8-5.8,9.1-9c-0.8,0-1.3-0.1-1.8-0.1c-11.1,0-22.2,0-33.4,0
		c-0.5,0-1.1,0-1.6-0.1c-1.9-0.2-3-1.5-3-3.3c0-15.4,0-30.9,0-46.3c0-2,1.3-3.3,3.2-3.4c0.4,0,0.8,0,1.2,0c28.1,0,56.2,0,84.2,0
		c3.3,0,4.5,1.1,4.5,4.4c0,14.8,0,29.7,0,44.5c0,3.1-1.1,4.2-4.2,4.2c-11.2,0-22.4,0-33.6,0C58.2,70.2,57.6,70.2,56.7,70.2z
		 M79.9,46.3c-20,0-39.9,0-59.8,0c0,1.5,0.1,3,0,4.4c0,0.5,0.1,1.2-0.6,1.5c-0.6,0-1-0.3-1.4-0.7c-2.1-2.1-4.2-4.2-6.3-6.3
		c-0.5-0.5-0.9-0.9-1.5-1.5c0,6.7,0,13.2,0,19.6c26.6,0,53,0,79.5,0c0-6.5,0-13,0-19.7c-2.7,2.7-5.2,5.3-7.8,7.8
		c-0.3,0.3-0.8,0.7-1.4,0.7c-0.5-0.1-0.6-1-0.6-1.5C79.9,49.2,79.9,47.8,79.9,46.3z M89.8,23.7c-26.6,0-53.1,0-79.5,0
		c0,6.5,0,13,0,19.6c2.7-2.7,5.1-5.2,7.7-7.7c0.4-0.4,0.8-0.8,1.5-0.7c0.6,0.2,0.6,1.1,0.6,1.6c0.1,1.4,0,2.8,0,4.2
		c20,0,39.9,0,59.8,0c0-1.6-0.1-3,0-4.5c0-0.5,0.3-1.1,0.7-1.3c0.4-0.2,0.9,0.2,1.2,0.5c0.9,0.8,1.7,1.7,2.6,2.5
		c1.7,1.7,3.4,3.5,5.4,5.5C89.8,36.7,89.8,30.3,89.8,23.7z"/>
</g>
<g display="none">
	<path display="inline" d="M51.4,10.4c2.3,2.3,4.8,4.5,7,6.8c0.3,0.4,0.7,0.7,0.7,1.3c-0.2,0.6-1,0.5-1.4,0.5c-1.2,0.1-2.5,0-3.7,0
		c0,17.6,0,34.8,0,52.4c1.4,0,2.7,0,4,0c0.4,0,1,0.2,1.1,0.6c0.2,0.3-0.2,0.8-0.4,1.1c-0.7,0.8-1.5,1.5-2.2,2.3
		c-1.5,1.5-3.1,3-4.8,4.7c-2.4-2.4-4.7-4.7-7-6.9c-0.3-0.3-0.6-0.7-0.6-1.2c0-0.4,0.9-0.5,1.3-0.6c1.2-0.1,2.5,0,3.8,0
		c0-17.6,0-34.8,0-52.4c-1.3,0-2.6,0.1-3.9,0c-0.5,0-1.1,0.1-1.3-0.6c0-0.5,0.3-0.9,0.6-1.2c1.8-1.9,3.7-3.7,5.5-5.5
		c0.4-0.4,1-0.8,1.5-1.3"/>
	<path display="inline" d="M78.4,7.6c0-2.9-1-3.9-3.9-3.9c-24.7,0-21.2,0-45.9,0c-0.4,0-0.7,0-1.1,0c-1.7,0.1-2.8,1.3-2.8,3
		c0,13.6,0,62.6,0,76.2c0,1.6,1,2.7,2.7,2.9c0.5,0.1,0.9,0.1,1.4,0.1c9.8,0,5.6,0,15.4,0c0.4,0,0.9,0,1.6,0.1
		c-2.8,2.8-5.4,5.4-8,7.9c-0.8,0.8-1.8,1.6-1.3,2.8c0.5,1.1,1.7,1,2.7,1c8.2,0,16.5,0,24.7,0c1,0,2.3,0.2,2.8-1s-0.5-2-1.3-2.7
		c-2.5-2.6-5.1-5.1-8-8c0.1,0,0.1,0,0.2,0c0,0,0,0,0.1,0l0,0c9.8,0,6.9,0,16.8,0c2.7,0,3.7-1,3.7-3.7C78.4,69.2,78.4,20.7,78.4,7.6z
		 M72.6,80.2H30.7v0.1v-0.1c0-6.3,0-64.7,0-70.4c23.2,0,18.3,0,41.7,0h0.2V80.2L72.6,80.2z"/>
</g>
<rect x="5.5" y="8.7" width="89.2" height="8.8"/>
<rect x="5.5" y="27.4" width="49.2" height="8.8"/>
<rect x="5.5" y="46.1" width="89.2" height="8.8"/>
<rect x="5.5" y="64.7" width="49.2" height="8.8"/>
<rect x="5.5" y="83.4" width="89.2" height="8.8"/>
</svg>
