<?xml version="1.0" encoding="utf-8"?>
<!-- Generator: Adobe Illustrator 18.0.0, SVG Export Plug-In . SVG Version: 6.00 Build 0)  -->
<!DOCTYPE svg PUBLIC "-//W3C//DTD SVG 1.1//EN" "http://www.w3.org/Graphics/SVG/1.1/DTD/svg11.dtd">
<svg version="1.1" id="Your_Icon" xmlns="http://www.w3.org/2000/svg" xmlns:xlink="http://www.w3.org/1999/xlink" x="0px" y="0px"
	 viewBox="0 0 612 792" enable-background="new 0 0 612 792" xml:space="preserve">
<g>
	<path d="M549.5,247.5H62.4C28,247.5,0,219.5,0,185c0-34.5,28-62.4,62.4-62.4h487.1c34.5,0,62.5,28,62.5,62.4
		C612,219.5,584,247.5,549.5,247.5z"/>
	<path d="M549.5,457.7H62.4C28,457.7,0,429.7,0,395.3c0-34.5,28-62.4,62.4-62.4h487.1c34.5,0,62.5,28,62.5,62.4
		C612,429.7,584,457.7,549.5,457.7z"/>
	<path d="M549.5,669.4H62.4C28,669.4,0,641.5,0,607c0-34.5,28-62.4,62.4-62.4h487.1c34.5,0,62.5,27.9,62.5,62.4
		C612,641.5,584,669.4,549.5,669.4z"/>
</g>
</svg>
