<?xml version="1.0" encoding="utf-8"?>
<!-- Generator: Adobe Illustrator 17.1.0, SVG Export Plug-In . SVG Version: 6.00 Build 0)  -->
<!DOCTYPE svg PUBLIC "-//W3C//DTD SVG 1.1//EN" "http://www.w3.org/Graphics/SVG/1.1/DTD/svg11.dtd">
<svg version="1.1" id="Layer_1" xmlns="http://www.w3.org/2000/svg" xmlns:xlink="http://www.w3.org/1999/xlink" x="0px" y="0px"
	 viewBox="0 0 100 100" enable-background="new 0 0 100 100" xml:space="preserve">
<path d="M71.1,28.9C65.5,23.3,58,20.2,50,20.2s-15.5,3.1-21.1,8.7C23.3,34.5,20.2,42,20.2,50c0,8,3.1,15.5,8.7,21.1
	c5.6,5.6,13.1,8.7,21.1,8.7c8,0,15.5-3.1,21.1-8.7c5.6-5.6,8.7-13.1,8.7-21.1S76.7,34.5,71.1,28.9z M66.4,66.4
	C62,70.8,56.2,73.2,50,73.2c-6.2,0-12-2.4-16.4-6.8C29.2,62,26.8,56.2,26.8,50s2.4-12,6.8-16.4c4.4-4.4,10.2-6.8,16.4-6.8
	s12,2.4,16.4,6.8c4.4,4.4,6.8,10.2,6.8,16.4S70.8,62,66.4,66.4z"/>
<polygon points="64.6,53.3 64.6,46.7 35.4,46.7 35.4,53.3 "/>
</svg>
