<?xml version="1.0" encoding="utf-8"?>
<!-- Generator: Adobe Illustrator 18.0.0, SVG Export Plug-In . SVG Version: 6.00 Build 0)  -->
<!DOCTYPE svg PUBLIC "-//W3C//DTD SVG 1.1//EN" "http://www.w3.org/Graphics/SVG/1.1/DTD/svg11.dtd">
<svg version="1.1" id="Layer_1" xmlns="http://www.w3.org/2000/svg" xmlns:xlink="http://www.w3.org/1999/xlink" x="0px" y="0px"
	 viewBox="0 0 100 100" enable-background="new 0 0 100 100" xml:space="preserve">
<path d="M54,26h-8.1v62H54V26z M70,26h-8.1v62H70V26z M38,26h-8.1v62H38V26z M77.9,10h-7V9c0-5.4-4-9-10-9h-22c-6,0-10,3.6-10,9v1
	h-7c-6.7,0-12,5.4-12,12h4V88c0,6.7,5.4,12,12,12h48c6.7,0,12-5.4,12-12V22h4C90,15.4,84.6,10,77.9,10z M34.9,9c0-1.9,1.4-3.1,4-3.1
	h22c2.6,0,4,1,4,3.1v1h-30V9z M77.9,88c0,2.2-1.8,4-3.9,4H25.9c-2.2,0-4-1.8-4-4V22h56.1V88z"/>
</svg>
